<mxfile host="65bd71144e">
    <diagram id="horizontal_cat_analysis" name="Cat_Analysis_Pipeline_Horizontal">
        <mxGraphModel dx="1040" dy="489" grid="1" gridSize="10" guides="1" tooltips="1" connect="1" arrows="1" fold="1" page="1" pageScale="1" pageWidth="1100" pageHeight="850" background="#ffffff" math="0" shadow="0">
            <root>
                <mxCell id="0"/>
                <mxCell id="1" parent="0"/>
                <mxCell id="2M0Xo8jM8y3lV7Jtq1dF-1" value="START" style="ellipse;whiteSpace=wrap;html=1;fillColor=#60a917;fontColor=#ffffff;strokeColor=#2D7600;" parent="1" vertex="1">
                    <mxGeometry x="40" y="375" width="100" height="50" as="geometry"/>
                </mxCell>
                <mxCell id="2M0Xo8jM8y3lV7Jtq1dF-2" value="Input Data Source" style="rounded=0;whiteSpace=wrap;html=1;fillColor=#e3c800;fontColor=#000000;strokeColor=#B09500;" parent="1" vertex="1">
                    <mxGeometry x="180" y="370" width="150" height="60" as="geometry"/>
                </mxCell>
                <mxCell id="2M0Xo8jM8y3lV7Jtq1dF-3" value="Choose Source:" style="whiteSpace=wrap;html=1;shape=hexagon;fillColor=#6a00ff;fontColor=#ffffff;strokeColor=#3700CC;" parent="1" vertex="1">
                    <mxGeometry x="370" y="365" width="120" height="70" as="geometry"/>
                </mxCell>
                <mxCell id="2M0Xo8jM8y3lV7Jtq1dF-4" value="Image" style="rounded=0;whiteSpace=wrap;html=1;fillColor=#0050ef;fontColor=#ffffff;strokeColor=#001DBC;" parent="1" vertex="1">
                    <mxGeometry x="370" y="270" width="120" height="60" as="geometry"/>
                </mxCell>
                <mxCell id="2M0Xo8jM8y3lV7Jtq1dF-5" value="Video" style="rounded=0;whiteSpace=wrap;html=1;fillColor=#0050ef;fontColor=#ffffff;strokeColor=#001DBC;" parent="1" vertex="1">
                    <mxGeometry x="530" y="370" width="120" height="60" as="geometry"/>
                </mxCell>
                <mxCell id="2M0Xo8jM8y3lV7Jtq1dF-6" value="Webcam" style="rounded=0;whiteSpace=wrap;html=1;fillColor=#0050ef;fontColor=#ffffff;strokeColor=#001DBC;" parent="1" vertex="1">
                    <mxGeometry x="370" y="470" width="120" height="60" as="geometry"/>
                </mxCell>
                <mxCell id="2M0Xo8jM8y3lV7Jtq1dF-7" value="Read Frame (Video/Webcam)" style="rounded=0;whiteSpace=wrap;html=1;fillColor=#e3c800;fontColor=#000000;strokeColor=#B09500;" parent="1" vertex="1">
                    <mxGeometry x="520" y="470" width="150" height="60" as="geometry"/>
                </mxCell>
                <mxCell id="2M0Xo8jM8y3lV7Jtq1dF-8" value="YOLOv12 Detection &amp;amp; Tracking (Cats)" style="rounded=0;whiteSpace=wrap;html=1;fillColor=#1ba1e2;fontColor=#ffffff;strokeColor=#006EAF;" parent="1" vertex="1">
                    <mxGeometry x="720" y="370" width="180" height="60" as="geometry"/>
                </mxCell>
                <mxCell id="2M0Xo8jM8y3lV7Jtq1dF-9" value="Cat Detected?" style="rhombus;whiteSpace=wrap;html=1;fillColor=#e51400;fontColor=#ffffff;strokeColor=#B20000;" parent="1" vertex="1">
                    <mxGeometry x="940" y="365" width="120" height="70" as="geometry"/>
                </mxCell>
                <mxCell id="2M0Xo8jM8y3lV7Jtq1dF-10" value="Crop Cat Bounding Boxes" style="rounded=0;whiteSpace=wrap;html=1;fillColor=#1ba1e2;fontColor=#ffffff;strokeColor=#006EAF;" parent="1" vertex="1">
                    <mxGeometry x="1100" y="370" width="150" height="60" as="geometry"/>
                </mxCell>
                <mxCell id="2M0Xo8jM8y3lV7Jtq1dF-11" value="Choose Inference Model:" style="whiteSpace=wrap;html=1;shape=hexagon;fillColor=#6a00ff;fontColor=#ffffff;strokeColor=#3700CC;" parent="1" vertex="1">
                    <mxGeometry x="1290" y="365" width="130" height="70" as="geometry"/>
                </mxCell>
                <mxCell id="2M0Xo8jM8y3lV7Jtq1dF-12" value="Infer: &lt;br&gt;Cat Breed Model &lt;br&gt;AND &lt;br&gt;Animal Emotion Model" style="rounded=0;whiteSpace=wrap;html=1;fillColor=#008a00;fontColor=#ffffff;strokeColor=#005700;" parent="1" vertex="1">
                    <mxGeometry x="1265" y="240" width="180" height="80" as="geometry"/>
                </mxCell>
                <mxCell id="2M0Xo8jM8y3lV7Jtq1dF-13" value="Infer: &lt;br&gt;Multitask Model &lt;br&gt;(Breed &amp;amp; Emotion)" style="rounded=0;whiteSpace=wrap;html=1;fillColor=#008a00;fontColor=#ffffff;strokeColor=#005700;" parent="1" vertex="1">
                    <mxGeometry x="1265" y="470" width="180" height="80" as="geometry"/>
                </mxCell>
                <mxCell id="2M0Xo8jM8y3lV7Jtq1dF-14" value="Get Breed &amp;amp; Emotion Results" style="rounded=0;whiteSpace=wrap;html=1;fillColor=#1ba1e2;fontColor=#ffffff;strokeColor=#006EAF;" parent="1" vertex="1">
                    <mxGeometry x="1530" y="370" width="160" height="60" as="geometry"/>
                </mxCell>
                <mxCell id="2M0Xo8jM8y3lV7Jtq1dF-15" value="Display Results on Frame" style="rounded=0;whiteSpace=wrap;html=1;fillColor=#d80073;fontColor=#ffffff;strokeColor=#A50040;" parent="1" vertex="1">
                    <mxGeometry x="1730" y="370" width="160" height="60" as="geometry"/>
                </mxCell>
                <mxCell id="2M0Xo8jM8y3lV7Jtq1dF-18" value="END" style="ellipse;whiteSpace=wrap;html=1;fillColor=#60a917;fontColor=#ffffff;strokeColor=#2D7600;" parent="1" vertex="1">
                    <mxGeometry x="1940" y="375" width="100" height="50" as="geometry"/>
                </mxCell>
                <mxCell id="2M0Xo8jM8y3lV7Jtq1dF-19" value="No Cat Detected" style="whiteSpace=wrap;html=1;fillColor=#f0a30a;fontColor=#ffffff;strokeColor=#BD7000;" parent="1" vertex="1">
                    <mxGeometry x="940" y="470" width="120" height="60" as="geometry"/>
                </mxCell>
                <mxCell id="2M0Xo8jM8y3lV7Jtq1dF-20" value="" style="endArrow=classic;html=1;rounded=0;" parent="1" source="2M0Xo8jM8y3lV7Jtq1dF-1" target="2M0Xo8jM8y3lV7Jtq1dF-2" edge="1">
                    <mxGeometry width="50" height="50" relative="1" as="geometry">
                        <mxPoint x="150" y="400" as="sourcePoint"/>
                        <mxPoint x="180" y="400" as="targetPoint"/>
                    </mxGeometry>
                </mxCell>
                <mxCell id="2M0Xo8jM8y3lV7Jtq1dF-21" value="" style="endArrow=classic;html=1;rounded=0;" parent="1" source="2M0Xo8jM8y3lV7Jtq1dF-2" target="2M0Xo8jM8y3lV7Jtq1dF-3" edge="1">
                    <mxGeometry width="50" height="50" relative="1" as="geometry">
                        <mxPoint x="340" y="400" as="sourcePoint"/>
                        <mxPoint x="370" y="400" as="targetPoint"/>
                    </mxGeometry>
                </mxCell>
                <mxCell id="2M0Xo8jM8y3lV7Jtq1dF-22" value="Image" style="edgeStyle=orthogonalEdgeStyle;html=1;rounded=0;" parent="1" source="2M0Xo8jM8y3lV7Jtq1dF-3" target="2M0Xo8jM8y3lV7Jtq1dF-4" edge="1">
                    <mxGeometry width="50" height="50" relative="1" as="geometry">
                        <mxPoint x="430" y="365" as="sourcePoint"/>
                        <mxPoint x="430" y="330" as="targetPoint"/>
                        <Array as="points">
                            <mxPoint x="430" y="335"/>
                            <mxPoint x="430" y="335"/>
                        </Array>
                    </mxGeometry>
                </mxCell>
                <mxCell id="2M0Xo8jM8y3lV7Jtq1dF-23" value="Video" style="edgeStyle=orthogonalEdgeStyle;html=1;rounded=0;" parent="1" source="2M0Xo8jM8y3lV7Jtq1dF-3" target="2M0Xo8jM8y3lV7Jtq1dF-5" edge="1">
                    <mxGeometry width="50" height="50" relative="1" as="geometry">
                        <mxPoint x="490" y="400" as="sourcePoint"/>
                        <mxPoint x="540" y="400" as="targetPoint"/>
                    </mxGeometry>
                </mxCell>
                <mxCell id="2M0Xo8jM8y3lV7Jtq1dF-24" value="Webcam" style="edgeStyle=orthogonalEdgeStyle;html=1;rounded=0;" parent="1" source="2M0Xo8jM8y3lV7Jtq1dF-3" target="2M0Xo8jM8y3lV7Jtq1dF-6" edge="1">
                    <mxGeometry width="50" height="50" relative="1" as="geometry">
                        <mxPoint x="430" y="435" as="sourcePoint"/>
                        <mxPoint x="430" y="470" as="targetPoint"/>
                        <Array as="points">
                            <mxPoint x="430" y="465"/>
                            <mxPoint x="430" y="465"/>
                        </Array>
                    </mxGeometry>
                </mxCell>
                <mxCell id="2M0Xo8jM8y3lV7Jtq1dF-25" value="" style="endArrow=classic;html=1;rounded=0;" parent="1" target="2M0Xo8jM8y3lV7Jtq1dF-8" edge="1">
                    <mxGeometry width="50" height="50" relative="1" as="geometry">
                        <mxPoint x="490" y="300" as="sourcePoint"/>
                        <mxPoint x="530" y="300" as="targetPoint"/>
                        <Array as="points">
                            <mxPoint x="680" y="300"/>
                            <mxPoint x="680" y="350"/>
                            <mxPoint x="680" y="400"/>
                            <mxPoint x="720" y="400"/>
                        </Array>
                    </mxGeometry>
                </mxCell>
                <mxCell id="2M0Xo8jM8y3lV7Jtq1dF-26" value="" style="endArrow=classic;html=1;rounded=0;" parent="1" source="2M0Xo8jM8y3lV7Jtq1dF-5" target="2M0Xo8jM8y3lV7Jtq1dF-8" edge="1">
                    <mxGeometry width="50" height="50" relative="1" as="geometry">
                        <mxPoint x="670" y="400" as="sourcePoint"/>
                        <mxPoint x="720" y="400" as="targetPoint"/>
                    </mxGeometry>
                </mxCell>
                <mxCell id="2M0Xo8jM8y3lV7Jtq1dF-27" value="" style="endArrow=classic;html=1;rounded=0;" parent="1" source="2M0Xo8jM8y3lV7Jtq1dF-6" target="2M0Xo8jM8y3lV7Jtq1dF-7" edge="1">
                    <mxGeometry width="50" height="50" relative="1" as="geometry">
                        <mxPoint x="490" y="500" as="sourcePoint"/>
                        <mxPoint x="520" y="500" as="targetPoint"/>
                    </mxGeometry>
                </mxCell>
                <mxCell id="2M0Xo8jM8y3lV7Jtq1dF-28" value="" style="endArrow=classic;html=1;rounded=0;" parent="1" source="2M0Xo8jM8y3lV7Jtq1dF-7" target="2M0Xo8jM8y3lV7Jtq1dF-8" edge="1">
                    <mxGeometry width="50" height="50" relative="1" as="geometry">
                        <mxPoint x="680" y="500" as="sourcePoint"/>
                        <mxPoint x="710" y="500" as="targetPoint"/>
                        <Array as="points">
                            <mxPoint x="680" y="500"/>
                            <mxPoint x="680" y="400"/>
                            <mxPoint x="710" y="400"/>
                        </Array>
                    </mxGeometry>
                </mxCell>
                <mxCell id="2M0Xo8jM8y3lV7Jtq1dF-29" value="" style="endArrow=classic;html=1;rounded=0;" parent="1" source="2M0Xo8jM8y3lV7Jtq1dF-8" target="2M0Xo8jM8y3lV7Jtq1dF-9" edge="1">
                    <mxGeometry width="50" height="50" relative="1" as="geometry">
                        <mxPoint x="910" y="400" as="sourcePoint"/>
                        <mxPoint x="940" y="400" as="targetPoint"/>
                    </mxGeometry>
                </mxCell>
                <mxCell id="2M0Xo8jM8y3lV7Jtq1dF-30" value="Yes" style="edgeStyle=orthogonalEdgeStyle;html=1;rounded=0;" parent="1" source="2M0Xo8jM8y3lV7Jtq1dF-9" target="2M0Xo8jM8y3lV7Jtq1dF-10" edge="1">
                    <mxGeometry width="50" height="50" relative="1" as="geometry">
                        <mxPoint x="1070" y="400" as="sourcePoint"/>
                        <mxPoint x="1100" y="400" as="targetPoint"/>
                    </mxGeometry>
                </mxCell>
                <mxCell id="2M0Xo8jM8y3lV7Jtq1dF-31" value="No" style="edgeStyle=orthogonalEdgeStyle;html=1;rounded=0;" parent="1" source="2M0Xo8jM8y3lV7Jtq1dF-9" target="2M0Xo8jM8y3lV7Jtq1dF-19" edge="1">
                    <mxGeometry width="50" height="50" relative="1" as="geometry">
                        <mxPoint x="1000" y="435" as="sourcePoint"/>
                        <mxPoint x="1000" y="470" as="targetPoint"/>
                    </mxGeometry>
                </mxCell>
                <mxCell id="2M0Xo8jM8y3lV7Jtq1dF-32" value="" style="endArrow=classic;html=1;rounded=0;" parent="1" source="2M0Xo8jM8y3lV7Jtq1dF-10" target="2M0Xo8jM8y3lV7Jtq1dF-11" edge="1">
                    <mxGeometry width="50" height="50" relative="1" as="geometry">
                        <mxPoint x="1260" y="400" as="sourcePoint"/>
                        <mxPoint x="1290" y="400" as="targetPoint"/>
                    </mxGeometry>
                </mxCell>
                <mxCell id="2M0Xo8jM8y3lV7Jtq1dF-33" value="Separate Models" style="edgeStyle=orthogonalEdgeStyle;html=1;rounded=0;" parent="1" source="2M0Xo8jM8y3lV7Jtq1dF-11" target="2M0Xo8jM8y3lV7Jtq1dF-12" edge="1">
                    <mxGeometry width="50" height="50" relative="1" as="geometry">
                        <mxPoint x="1355" y="365" as="sourcePoint"/>
                        <mxPoint x="1355" y="340" as="targetPoint"/>
                    </mxGeometry>
                </mxCell>
                <mxCell id="2M0Xo8jM8y3lV7Jtq1dF-34" value="Multitask Model" style="edgeStyle=orthogonalEdgeStyle;html=1;rounded=0;" parent="1" source="2M0Xo8jM8y3lV7Jtq1dF-11" target="2M0Xo8jM8y3lV7Jtq1dF-13" edge="1">
                    <mxGeometry width="50" height="50" relative="1" as="geometry">
                        <mxPoint x="1355" y="435" as="sourcePoint"/>
                        <mxPoint x="1355" y="470" as="targetPoint"/>
                    </mxGeometry>
                </mxCell>
                <mxCell id="2M0Xo8jM8y3lV7Jtq1dF-35" value="" style="endArrow=classic;html=1;rounded=0;" parent="1" source="2M0Xo8jM8y3lV7Jtq1dF-12" target="2M0Xo8jM8y3lV7Jtq1dF-14" edge="1">
                    <mxGeometry width="50" height="50" relative="1" as="geometry">
                        <mxPoint x="1490" y="300" as="sourcePoint"/>
                        <mxPoint x="1520" y="300" as="targetPoint"/>
                        <Array as="points">
                            <mxPoint x="1510" y="280"/>
                            <mxPoint x="1510" y="400"/>
                        </Array>
                    </mxGeometry>
                </mxCell>
                <mxCell id="2M0Xo8jM8y3lV7Jtq1dF-36" value="" style="endArrow=classic;html=1;rounded=0;" parent="1" source="2M0Xo8jM8y3lV7Jtq1dF-13" target="2M0Xo8jM8y3lV7Jtq1dF-14" edge="1">
                    <mxGeometry width="50" height="50" relative="1" as="geometry">
                        <mxPoint x="1490" y="510" as="sourcePoint"/>
                        <mxPoint x="1520" y="510" as="targetPoint"/>
                        <Array as="points">
                            <mxPoint x="1510" y="510"/>
                            <mxPoint x="1510" y="400"/>
                        </Array>
                    </mxGeometry>
                </mxCell>
                <mxCell id="2M0Xo8jM8y3lV7Jtq1dF-37" value="" style="endArrow=classic;html=1;rounded=0;" parent="1" source="2M0Xo8jM8y3lV7Jtq1dF-14" target="2M0Xo8jM8y3lV7Jtq1dF-15" edge="1">
                    <mxGeometry width="50" height="50" relative="1" as="geometry">
                        <mxPoint x="1700" y="400" as="sourcePoint"/>
                        <mxPoint x="1730" y="400" as="targetPoint"/>
                    </mxGeometry>
                </mxCell>
                <mxCell id="2M0Xo8jM8y3lV7Jtq1dF-38" value="" style="endArrow=classic;html=1;rounded=0;entryX=0;entryY=0.5;entryDx=0;entryDy=0;" parent="1" source="2M0Xo8jM8y3lV7Jtq1dF-15" target="2M0Xo8jM8y3lV7Jtq1dF-18" edge="1">
                    <mxGeometry width="50" height="50" relative="1" as="geometry">
                        <mxPoint x="1900" y="400" as="sourcePoint"/>
                        <mxPoint x="1930" y="400" as="targetPoint"/>
                    </mxGeometry>
                </mxCell>
                <mxCell id="2M0Xo8jM8y3lV7Jtq1dF-41" value="" style="endArrow=classic;html=1;rounded=0;" parent="1" source="2M0Xo8jM8y3lV7Jtq1dF-19" target="2M0Xo8jM8y3lV7Jtq1dF-15" edge="1">
                    <mxGeometry width="50" height="50" relative="1" as="geometry">
                        <mxPoint x="1000" y="530" as="sourcePoint"/>
                        <mxPoint x="1000" y="560" as="targetPoint"/>
                        <Array as="points">
                            <mxPoint x="1000" y="560"/>
                            <mxPoint x="1750" y="560"/>
                            <mxPoint x="1750" y="430"/>
                        </Array>
                    </mxGeometry>
                </mxCell>
                <mxCell id="g5hU2-oH9sWv8sQ8lP91-1" value="**Stage 1: Input &amp;amp; Preprocessing**" style="text;html=1;align=center;verticalAlign=middle;resizable=0;points=[];autosize=1;strokeColor=none;fillColor=none;fontColor=#2D7600;" parent="1" vertex="1">
                    <mxGeometry x="180" y="190" width="180" height="30" as="geometry"/>
                </mxCell>
                <mxCell id="g5hU2-oH9sWv8sQ8lP91-2" value="**Stage 2: Cat Detection**" style="text;html=1;align=center;verticalAlign=middle;resizable=0;points=[];autosize=1;strokeColor=none;fillColor=none;fontColor=#006EAF;" parent="1" vertex="1">
                    <mxGeometry x="720" y="190" width="150" height="30" as="geometry"/>
                </mxCell>
                <mxCell id="g5hU2-oH9sWv8sQ8lP91-3" value="**Stage 3: Feature Extraction &amp;amp; Inference**" style="text;html=1;align=center;verticalAlign=middle;resizable=0;points=[];autosize=1;strokeColor=none;fillColor=none;fontColor=#005700;" parent="1" vertex="1">
                    <mxGeometry x="1260" y="190" width="220" height="30" as="geometry"/>
                </mxCell>
                <mxCell id="g5hU2-oH9sWv8sQ8lP91-4" value="**Stage 4: Output &amp;amp; Logging**" style="text;html=1;align=center;verticalAlign=middle;resizable=0;points=[];autosize=1;strokeColor=none;fillColor=none;fontColor=#A50040;" parent="1" vertex="1">
                    <mxGeometry x="1730" y="190" width="160" height="30" as="geometry"/>
                </mxCell>
            </root>
        </mxGraphModel>
    </diagram>
</mxfile>